<svg width="1440" height="590" viewBox="0 0 1440 590" fill="none" xmlns="http://www.w3.org/2000/svg">
<g clip-path="url(#clip0_10_2)">
<path d="M0 600V112C44.2537 128.494 88.5074 144.987 152 131C215.493 117.013 298.224 72.5443 347 57C395.776 41.4557 410.596 54.8355 452 60C493.404 65.1645 561.392 62.1137 627 81C692.608 99.8864 755.837 140.71 815 142C874.163 143.29 929.26 105.047 970 109C1010.74 112.953 1037.12 159.103 1094 162C1150.88 164.897 1238.25 124.542 1301 109C1363.75 93.4579 1401.87 102.729 1440 112V600H0Z" fill="url(#paint0_linear_10_2)" fill-opacity="0.4"/>
<path d="M0 600V262C59.8427 293.092 119.685 324.185 167 302C214.315 279.815 249.101 204.353 298 206C346.899 207.647 409.91 286.402 473 313C536.09 339.598 599.259 314.04 657 296C714.741 277.96 767.055 267.437 809 253C850.945 238.563 882.521 220.213 936 228C989.479 235.787 1064.86 269.712 1123 279C1181.14 288.288 1222.04 272.939 1272 266C1321.96 259.061 1380.98 260.53 1440 262V600H0Z" fill="url(#paint1_linear_10_2)" fill-opacity="0.53"/>
<path d="M0 600V412C45.7721 411.588 91.5442 411.177 142 403C192.456 394.823 247.595 378.881 309 397C370.405 415.119 438.075 467.299 495 465C551.925 462.701 598.106 405.924 645 396C691.894 386.076 739.502 423.004 792 420C844.498 416.996 901.886 374.061 954 361C1006.11 347.939 1052.95 364.753 1112 385C1171.05 405.247 1242.3 428.928 1299 434C1355.7 439.072 1397.85 425.536 1440 412V600H0Z" fill="url(#paint2_linear_10_2)"/>
</g>
<defs>
<linearGradient id="paint0_linear_10_2" x1="122400" y1="46824" x2="96711.2" y2="-20399.2" gradientUnits="userSpaceOnUse">
<stop offset="0.05" stop-color="#001933"/>
<stop offset="0.95" stop-color="#001933" stop-opacity="0.815686"/>
</linearGradient>
<linearGradient id="paint1_linear_10_2" x1="122400" y1="33698.2" x2="108357" y2="-17622.9" gradientUnits="userSpaceOnUse">
<stop offset="0.05" stop-color="#001933"/>
<stop offset="0.95" stop-color="#001933"/>
</linearGradient>
<linearGradient id="paint2_linear_10_2" x1="122400" y1="21063.1" x2="116791" y2="-12093.2" gradientUnits="userSpaceOnUse">
<stop offset="0.05" stop-color="#001933"/>
<stop offset="0.95" stop-color="#001933"/>
</linearGradient>
<clipPath id="clip0_10_2">
<rect width="1440" height="590" fill="white"/>
</clipPath>
</defs>
</svg>
